<svg xmlns="http://www.w3.org/2000/svg" width="42.568" height="47.109" viewBox="0 0 42.568 47.109">
  <g id="like-svgrepo-com" transform="translate(-2.25 -2)">
    <path id="Path_1058" data-name="Path 1058" d="M38.245,34.386l1.6-9.262a3.783,3.783,0,0,0-3.724-4.429H24.36a1.891,1.891,0,0,1-1.865-2.2L24,9.314a10.858,10.858,0,0,0-.205-4.481,3.711,3.711,0,0,0-2.479-2.58l-.329-.106a3.055,3.055,0,0,0-2.255.154,2.87,2.87,0,0,0-1.545,1.856L16.106,8.32a17.318,17.318,0,0,1-1.49,3.812A16.247,16.247,0,0,1,10.7,16.615L7.434,19.43a3.786,3.786,0,0,0-1.3,3.194L7.978,43.948a3.781,3.781,0,0,0,3.765,3.457H22.3A16.006,16.006,0,0,0,38.245,34.386Z" transform="translate(4.916 0)" fill="#f2007d"/>
    <path id="Path_1059" data-name="Path 1059" d="M3.879,9.486a1.7,1.7,0,0,1,1.77,1.555l2.206,25.51a2.808,2.808,0,1,1-5.6.242V11.187A1.7,1.7,0,0,1,3.879,9.486Z" transform="translate(0 9.507)" fill="#f2007d" fill-rule="evenodd"/>
  </g>
</svg>
