<svg xmlns="http://www.w3.org/2000/svg" width="192" height="97.162" viewBox="0 0 192 97.162">
  <g id="Group_861" data-name="Group 861" transform="translate(-198.781 -2470.152)">
    <g id="Group_28" data-name="Group 28" transform="translate(198.982 2531.449)">
      <g id="Group_23" data-name="Group 23" transform="translate(0 0)">
        <rect id="Rectangle_42" data-name="Rectangle 42" width="35.865" height="35.865" fill="#00b67a"/>
        <path id="trustpilot-svgrepo-com" d="M11.963,17.911l5.2-1.317,2.172,6.693ZM23.926,9.26H14.776L11.963.643,9.151,9.26H0L7.406,14.6,4.594,23.217,12,17.876,16.557,14.6,23.926,9.26Z" transform="translate(5.677 5.845)" fill="#fff"/>
      </g>
      <g id="Group_24" data-name="Group 24" transform="translate(38.983 0)">
        <rect id="Rectangle_42-2" data-name="Rectangle 42" width="35.865" height="35.865" transform="translate(0)" fill="#00b67a"/>
        <path id="trustpilot-svgrepo-com-2" data-name="trustpilot-svgrepo-com" d="M11.963,17.911l5.2-1.317,2.172,6.693ZM23.926,9.26H14.776L11.963.643,9.151,9.26H0L7.406,14.6,4.594,23.217,12,17.876,16.557,14.6,23.926,9.26Z" transform="translate(5.625 5.845)" fill="#fff"/>
      </g>
      <g id="Group_25" data-name="Group 25" transform="translate(77.967 0)">
        <rect id="Rectangle_42-3" data-name="Rectangle 42" width="35.865" height="35.865" transform="translate(0)" fill="#00b67a"/>
        <path id="trustpilot-svgrepo-com-3" data-name="trustpilot-svgrepo-com" d="M11.963,17.911l5.2-1.317,2.172,6.693ZM23.926,9.26H14.776L11.963.643,9.151,9.26H0L7.406,14.6,4.594,23.217,12,17.876,16.557,14.6,23.926,9.26Z" transform="translate(5.572 5.845)" fill="#fff"/>
      </g>
      <g id="Group_26" data-name="Group 26" transform="translate(116.95 0)">
        <rect id="Rectangle_42-4" data-name="Rectangle 42" width="35.865" height="35.865" transform="translate(0)" fill="#00b67a"/>
        <path id="trustpilot-svgrepo-com-4" data-name="trustpilot-svgrepo-com" d="M11.963,17.911l5.2-1.317,2.172,6.693ZM23.926,9.26H14.776L11.963.643,9.151,9.26H0L7.406,14.6,4.594,23.217,12,17.876,16.557,14.6,23.926,9.26Z" transform="translate(5.519 5.845)" fill="#fff"/>
      </g>
      <g id="Group_27" data-name="Group 27" transform="translate(155.934 0)">
        <rect id="Rectangle_42-5" data-name="Rectangle 42" width="35.865" height="35.865" transform="translate(0)" fill="#00b67a"/>
        <path id="trustpilot-svgrepo-com-5" data-name="trustpilot-svgrepo-com" d="M11.963,17.911l5.2-1.317,2.172,6.693ZM23.926,9.26H14.776L11.963.643,9.151,9.26H0L7.406,14.6,4.594,23.217,12,17.876,16.557,14.6,23.926,9.26Z" transform="translate(5.466 5.845)" fill="#fff"/>
      </g>
    </g>
    <g id="_486ba3280e95461" data-name="486ba3280e95461" transform="translate(198.781 2470.152)">
      <path id="Path_18" data-name="Path 18" d="M297.617,98.6h19.437v3.626h-7.643v20.386h-4.2V102.226H297.6V98.6Zm18.607,6.626h3.593v3.355h.068a3.943,3.943,0,0,1,.661-1.373,6.107,6.107,0,0,1,1.169-1.22,6.231,6.231,0,0,1,1.525-.9,4.666,4.666,0,0,1,1.712-.339c.441,0,.763.017.932.034s.339.051.525.068v3.694c-.271-.051-.542-.085-.83-.119a7.036,7.036,0,0,0-.83-.051,4.492,4.492,0,0,0-1.83.39,4.218,4.218,0,0,0-1.491,1.135,5.765,5.765,0,0,0-1.017,1.864,7.9,7.9,0,0,0-.373,2.559v8.27h-3.83v-17.37Zm27.792,17.387h-3.762v-2.423h-.068a5.224,5.224,0,0,1-2.1,2.1,5.749,5.749,0,0,1-2.847.8c-2.288,0-3.948-.559-4.965-1.695a7.5,7.5,0,0,1-1.525-5.135V105.226h3.83v10.659a4.683,4.683,0,0,0,.881,3.237,3.191,3.191,0,0,0,2.457.949,4.711,4.711,0,0,0,2.017-.373,3.4,3.4,0,0,0,1.3-1,3.837,3.837,0,0,0,.729-1.491,7.343,7.343,0,0,0,.22-1.881V105.243h3.83Zm6.524-5.575a2.95,2.95,0,0,0,1.271,2.356,5.127,5.127,0,0,0,2.661.678,11.377,11.377,0,0,0,1.22-.085,5.122,5.122,0,0,0,1.288-.322,2.476,2.476,0,0,0,1-.695,1.685,1.685,0,0,0,.356-1.186,1.637,1.637,0,0,0-.542-1.2,3.817,3.817,0,0,0-1.288-.763,12.926,12.926,0,0,0-1.8-.491c-.678-.136-1.356-.288-2.05-.441a19.468,19.468,0,0,1-2.067-.576,6.313,6.313,0,0,1-1.779-.915,4.025,4.025,0,0,1-1.254-1.457,4.558,4.558,0,0,1-.474-2.2,3.97,3.97,0,0,1,.695-2.372,5.267,5.267,0,0,1,1.745-1.542,8.089,8.089,0,0,1,2.356-.83,14.341,14.341,0,0,1,2.474-.237,11.535,11.535,0,0,1,2.576.288,6.64,6.64,0,0,1,2.22.932,5.489,5.489,0,0,1,1.644,1.661,5.78,5.78,0,0,1,.83,2.474h-4a2.385,2.385,0,0,0-1.254-1.847,5.137,5.137,0,0,0-2.271-.474,7.13,7.13,0,0,0-.966.068,5.286,5.286,0,0,0-1.051.254,2.278,2.278,0,0,0-.83.542,1.31,1.31,0,0,0-.339.932,1.449,1.449,0,0,0,.491,1.135,4.109,4.109,0,0,0,1.271.729,12.927,12.927,0,0,0,1.8.491c.678.136,1.373.288,2.084.441.695.153,1.373.356,2.05.576a6.19,6.19,0,0,1,1.8.915,4.512,4.512,0,0,1,1.271,1.44,4.393,4.393,0,0,1,.491,2.152,4.682,4.682,0,0,1-.712,2.627,5.635,5.635,0,0,1-1.83,1.745,8.605,8.605,0,0,1-2.508.983,12.583,12.583,0,0,1-2.728.305,11.574,11.574,0,0,1-3.05-.373,7.425,7.425,0,0,1-2.423-1.118,5.545,5.545,0,0,1-1.61-1.881,6.175,6.175,0,0,1-.627-2.677h3.864Zm12.642-11.811h2.9v-5.219h3.83v5.219h3.457v2.864h-3.457v9.287a9.477,9.477,0,0,0,.051,1.051,1.934,1.934,0,0,0,.237.746,1.087,1.087,0,0,0,.559.458,2.731,2.731,0,0,0,1.017.153c.271,0,.542,0,.813-.017a4.487,4.487,0,0,0,.813-.119v2.966c-.424.051-.847.085-1.237.136a9.908,9.908,0,0,1-1.237.068,8.573,8.573,0,0,1-2.44-.288,3.166,3.166,0,0,1-1.44-.847,2.941,2.941,0,0,1-.712-1.39,10.447,10.447,0,0,1-.22-1.915V108.124h-2.9v-2.9Zm12.9,0H379.7v2.356h.068a4.732,4.732,0,0,1,2.254-2.169,7.427,7.427,0,0,1,3.135-.661,8.115,8.115,0,0,1,3.576.729,6.989,6.989,0,0,1,2.542,1.983,8.676,8.676,0,0,1,1.508,2.949,12.355,12.355,0,0,1,.508,3.593,12.488,12.488,0,0,1-.458,3.389,9.071,9.071,0,0,1-1.373,2.915,6.739,6.739,0,0,1-2.339,2.017,6.936,6.936,0,0,1-3.338.763,9.359,9.359,0,0,1-1.678-.153,7.385,7.385,0,0,1-1.61-.491,5.812,5.812,0,0,1-1.423-.864,5.369,5.369,0,0,1-1.1-1.22h-.068v8.676h-3.83Zm13.388,8.71a8.655,8.655,0,0,0-.305-2.288,6.168,6.168,0,0,0-.915-1.966,4.663,4.663,0,0,0-1.508-1.373,4.655,4.655,0,0,0-5.728,1.152,7.444,7.444,0,0,0-1.22,4.474,8.588,8.588,0,0,0,.322,2.44,5.45,5.45,0,0,0,.966,1.932,4.573,4.573,0,0,0,1.525,1.271,4.779,4.779,0,0,0,4.287-.068,4.688,4.688,0,0,0,1.491-1.39,5.773,5.773,0,0,0,.847-1.949A10.889,10.889,0,0,0,389.465,113.936ZM396.227,98.6h3.83v3.626h-3.83Zm0,6.626h3.83v17.387h-3.83ZM403.48,98.6h3.83v24.013h-3.83V98.6Zm15.573,24.487a9.472,9.472,0,0,1-3.711-.695,7.778,7.778,0,0,1-4.474-4.8,11.186,11.186,0,0,1-.593-3.694,11.055,11.055,0,0,1,.593-3.66,8.264,8.264,0,0,1,1.712-2.9,7.8,7.8,0,0,1,2.762-1.9,10.259,10.259,0,0,1,7.422,0,7.777,7.777,0,0,1,4.474,4.8,11.052,11.052,0,0,1,.593,3.66,11.183,11.183,0,0,1-.593,3.694,8.263,8.263,0,0,1-1.712,2.9,7.8,7.8,0,0,1-2.762,1.9A9.472,9.472,0,0,1,419.053,123.087Zm0-3.033a4.441,4.441,0,0,0,2.22-.542,4.724,4.724,0,0,0,1.542-1.407,6.312,6.312,0,0,0,.9-1.966,8.763,8.763,0,0,0,0-4.457,5.8,5.8,0,0,0-.9-1.966,4.675,4.675,0,0,0-1.542-1.39,4.815,4.815,0,0,0-4.44,0,4.866,4.866,0,0,0-1.542,1.39,6.14,6.14,0,0,0-.9,1.966,8.763,8.763,0,0,0,0,4.457,5.951,5.951,0,0,0,.9,1.966,4.725,4.725,0,0,0,1.542,1.407A4.271,4.271,0,0,0,419.053,120.054Zm9.9-14.828h2.9v-5.219h3.83v5.219h3.457v2.864h-3.457v9.287a9.462,9.462,0,0,0,.051,1.051,1.932,1.932,0,0,0,.237.746,1.087,1.087,0,0,0,.559.458,2.731,2.731,0,0,0,1.017.153c.271,0,.542,0,.813-.017a4.488,4.488,0,0,0,.813-.119v2.966c-.424.051-.847.085-1.237.136a9.909,9.909,0,0,1-1.237.068,8.571,8.571,0,0,1-2.44-.288,3.167,3.167,0,0,1-1.44-.847,2.941,2.941,0,0,1-.712-1.39,10.447,10.447,0,0,1-.22-1.915V108.124h-2.9v-2.9Z" transform="translate(-247.168 -81.891)" fill="#fff"/>
      <path id="Path_19" data-name="Path 19" d="M45.975,16.709H28.419L23,0l-5.44,16.709L0,16.692,14.218,27.029,8.778,43.721,23,33.4l14.2,10.32L31.774,27.029Z" transform="translate(0)" fill="#00b67a"/>
      <path id="Path_20" data-name="Path 20" d="M145.7,163.279l-1.22-3.779-8.778,6.372Z" transform="translate(-112.704 -132.471)" fill="#005128"/>
    </g>
  </g>
</svg>
