<svg xmlns="http://www.w3.org/2000/svg" width="13.842" height="22.146" viewBox="0 0 13.842 22.146">
  <path id="Icon_awesome-mobile-alt" data-name="Icon awesome-mobile-alt" d="M11.765,0H2.076A2.077,2.077,0,0,0,0,2.076V20.07a2.077,2.077,0,0,0,2.076,2.076h9.689a2.077,2.077,0,0,0,2.076-2.076V2.076A2.077,2.077,0,0,0,11.765,0ZM6.921,20.762A1.384,1.384,0,1,1,8.3,19.378,1.383,1.383,0,0,1,6.921,20.762Zm4.845-4.672a.521.521,0,0,1-.519.519H2.6a.521.521,0,0,1-.519-.519V2.6A.521.521,0,0,1,2.6,2.076h8.651a.521.521,0,0,1,.519.519Z" fill="#201f1f"/>
</svg>
