<svg xmlns="http://www.w3.org/2000/svg" width="20.119" height="20.119" viewBox="0 0 20.119 20.119">
  <path id="Icon_ionic-logo-whatsapp" data-name="Icon ionic-logo-whatsapp" d="M12.492,2.25a9.839,9.839,0,0,0-9.877,9.8,9.7,9.7,0,0,0,1.417,5.061L2.25,22.369l5.468-1.737a9.894,9.894,0,0,0,14.651-8.581A9.839,9.839,0,0,0,12.492,2.25ZM17.4,15.772A2.551,2.551,0,0,1,15.656,16.9c-.463.025-.476.359-3-.738a10.305,10.305,0,0,1-4.164-3.937A4.844,4.844,0,0,1,7.559,9.6,2.8,2.8,0,0,1,8.52,7.545.967.967,0,0,1,9.2,7.257c.2,0,.328-.006.475,0s.368-.031.559.478.649,1.758.707,1.886a.458.458,0,0,1,0,.439,1.715,1.715,0,0,1-.268.408c-.132.141-.277.316-.395.424s-.268.25-.13.506a7.558,7.558,0,0,0,1.337,1.784,6.891,6.891,0,0,0,1.98,1.317c.248.135.4.12.549-.042s.657-.707.835-.951.344-.2.572-.1,1.444.744,1.692.878.413.2.472.31A2.074,2.074,0,0,1,17.4,15.772Z" transform="translate(-2.25 -2.25)" fill="#25d366"/>
</svg>
