<svg xmlns="http://www.w3.org/2000/svg" width="36.887" height="59.014" viewBox="0 0 36.887 59.014">
  <g id="flame-svgrepo-com" transform="translate(-114.73 0.001)">
    <path id="Path_1057" data-name="Path 1057" d="M124.5,58.935a.636.636,0,0,0,.832-.906,14.591,14.591,0,0,1-.84-14.459c4.82-10.775,7.752-16.355,7.752-16.355a38.793,38.793,0,0,0,5.788,12.3c4.07,5.573,6.3,12.582,2.706,18.42a.636.636,0,0,0,.83.9C146.011,56.565,151,52,151.56,42.927A31.056,31.056,0,0,0,149.9,31.37c-2-6.211-4.459-9.108-5.881-10.353a.636.636,0,0,0-1.052.522c.415,6.7-2.106,8.4-3.541,4.569a23.452,23.452,0,0,1-.907-7.4,25.312,25.312,0,0,0-4.991-15.383A17.422,17.422,0,0,0,130.392.134a.636.636,0,0,0-1.023.55c.264,3.639.025,14.067-9.124,26.526-8.3,11.557-5.081,20.433-3.94,22.837A18.814,18.814,0,0,0,124.5,58.935Z" transform="translate(0 0)" fill="#f2007d"/>
  </g>
</svg>
