<svg xmlns="http://www.w3.org/2000/svg" width="44.025" height="40.881" viewBox="0 0 44.025 40.881">
  <path id="Icon_ionic-ios-star" data-name="Icon ionic-ios-star" d="M44.6,17.526H30.149L25.756,4.417a1.592,1.592,0,0,0-2.987,0L18.376,17.526H3.822A1.577,1.577,0,0,0,2.25,19.1a1.156,1.156,0,0,0,.029.265,1.511,1.511,0,0,0,.658,1.11l11.881,8.373L10.259,42.1a1.577,1.577,0,0,0,.54,1.769,1.521,1.521,0,0,0,.884.383,1.926,1.926,0,0,0,.983-.354l11.6-8.265,11.6,8.265a1.841,1.841,0,0,0,.983.354,1.412,1.412,0,0,0,.875-.383,1.558,1.558,0,0,0,.54-1.769L33.7,28.847,45.479,20.4l.285-.246a1.649,1.649,0,0,0,.511-1.051A1.664,1.664,0,0,0,44.6,17.526Z" transform="translate(-2.25 -3.375)" fill="#f2007d"/>
</svg>
