<svg id="new-window-svgrepo-com" xmlns="http://www.w3.org/2000/svg" width="18.174" height="18.174" viewBox="0 0 18.174 18.174">
  <path id="Path_79" data-name="Path 79" d="M31.332,2H24.1a.556.556,0,0,0-.606.492V3.628a.657.657,0,0,0,.606.644h2.991a.347.347,0,0,1,.265.606L20.92,11.314a.549.549,0,0,0,0,.8l.8.8a.549.549,0,0,0,.8,0l6.437-6.437a.353.353,0,0,1,.606.265V9.724a.688.688,0,0,0,.606.644h1.1a.654.654,0,0,0,.568-.644V2.53A.469.469,0,0,0,31.332,2Z" transform="translate(-13.651 -2)" fill="#201f1f"/>
  <path id="Path_80" data-name="Path 80" d="M14.987,18.354,13.7,19.679a1.09,1.09,0,0,0-.341.8v4.316a.582.582,0,0,1-.568.568H4.84a.582.582,0,0,1-.568-.568V16.84a.582.582,0,0,1,.568-.568H9.194a1.031,1.031,0,0,0,.8-.341l1.287-1.287A.379.379,0,0,0,11.011,14h-7.5A1.519,1.519,0,0,0,2,15.514v10.6A1.519,1.519,0,0,0,3.514,27.63h10.6a1.519,1.519,0,0,0,1.514-1.514v-7.5A.379.379,0,0,0,14.987,18.354Z" transform="translate(-2 -9.457)" fill="#201f1f"/>
</svg>
