<svg xmlns="http://www.w3.org/2000/svg" width="44.015" height="36" viewBox="0 0 44.015 36">
  <g id="Q3_icons" data-name="Q3 icons" transform="translate(-1.998 -6)">
    <g id="Group_717" data-name="Group 717">
      <path id="Path_1060" data-name="Path 1060" d="M34,6h-.6l-30,8.8a2,2,0,0,0-1.4,2v9a2.2,2.2,0,0,0,1.4,2l30,8.8H34a2,2,0,0,0,2-2V8A2,2,0,0,0,34,6ZM19.1,34.2,8.4,31l1.3,8.4A2.9,2.9,0,0,0,12.6,42h4.5a2.8,2.8,0,0,0,2.1-1,3.4,3.4,0,0,0,.8-2.6Z" fill="#f2007d"/>
      <path id="Path_1061" data-name="Path 1061" d="M40,15.3a1.5,1.5,0,0,0,.9-.2l4-2a2.012,2.012,0,1,0-1.8-3.6l-4,2a2,2,0,0,0-.9,2.7A2.1,2.1,0,0,0,40,15.3Z" fill="#f2007d"/>
      <path id="Path_1062" data-name="Path 1062" d="M44.9,29.6l-4-2a2.1,2.1,0,0,0-2.7.8,2,2,0,0,0,.9,2.7l4,2a1.5,1.5,0,0,0,.9.2,2.1,2.1,0,0,0,1.8-1.1,1.9,1.9,0,0,0-.9-2.6Z" fill="#f2007d"/>
      <path id="Path_1063" data-name="Path 1063" d="M40,23.3h4a2,2,0,0,0,0-4H40a2,2,0,0,0,0,4Z" fill="#f2007d"/>
    </g>
  </g>
</svg>
