<svg xmlns="http://www.w3.org/2000/svg" width="43.31" height="30.898" viewBox="0 0 43.31 30.898">
  <g id="Group_647" data-name="Group 647" transform="translate(0.751 0.963)">
    <path id="Path_703" data-name="Path 703" d="M298.5,142.572V147.8h8.175" transform="translate(-272.37 -130.372)" fill="none" stroke="#eb057c" stroke-linecap="round" stroke-linejoin="round" stroke-width="1.5"/>
    <line id="Line_91" data-name="Line 91" x2="19.364" transform="translate(11.627 26.571)" fill="none" stroke="#eb057c" stroke-linecap="round" stroke-linejoin="round" stroke-width="1.5"/>
    <g id="Group_646" data-name="Group 646" transform="translate(-0.001 -0.001)">
      <path id="Path_704" data-name="Path 704" d="M43.907,125.544H46.5a1.314,1.314,0,0,0,1.31-1.31v-4.8a2.863,2.863,0,0,0-2.22-2.79l-1.882-.52-5.68-6.807a3.384,3.384,0,0,0-2.6-1.219l-26.845-.008A2.583,2.583,0,0,0,6,110.675v13.2a1.667,1.667,0,0,0,1.767,1.669h2.946" transform="translate(-6 -98.972)" fill="none" stroke="#eb057c" stroke-linecap="round" stroke-linejoin="round" stroke-width="1.5"/>
      <path id="Path_705" data-name="Path 705" d="M64.422,255.852a3.593,3.593,0,1,1-3.593-3.593A3.593,3.593,0,0,1,64.422,255.852Z" transform="translate(-52.658 -230.259)" fill="none" stroke="#eb057c" stroke-linecap="round" stroke-linejoin="round" stroke-width="1.5"/>
      <path id="Path_706" data-name="Path 706" d="M358.581,255.852a3.593,3.593,0,1,1-3.593-3.593A3.593,3.593,0,0,1,358.581,255.852Z" transform="translate(-320.537 -230.259)" fill="none" stroke="#eb057c" stroke-linecap="round" stroke-linejoin="round" stroke-width="1.5"/>
      <rect id="Rectangle_285" data-name="Rectangle 285" width="13.066" height="5.226" transform="translate(5.227 12.2)" fill="none" stroke="#eb057c" stroke-linecap="round" stroke-linejoin="round" stroke-width="1.5"/>
      <line id="Line_92" data-name="Line 92" x1="25.189" y2="9.221" transform="translate(1.868)" fill="none" stroke="#eb057c" stroke-linecap="round" stroke-linejoin="round" stroke-width="1.5"/>
      <path id="Path_707" data-name="Path 707" d="M294.907,18.573a20,20,0,0,1-.352-4.023,30.258,30.258,0,0,1,.352-4.759" transform="translate(-268.776 -9.452)" fill="none" stroke="#eb057c" stroke-linecap="round" stroke-linejoin="round" stroke-width="1.5"/>
      <path id="Path_708" data-name="Path 708" d="M213.179,64.063a1.984,1.984,0,0,0-3.967,0" transform="translate(-191.057 -57.068)" fill="none" stroke="#eb057c" stroke-linecap="round" stroke-linejoin="round" stroke-width="1.5"/>
    </g>
  </g>
</svg>
